<?xml version="1.0" encoding="utf-8"?>
<!-- Generator: Adobe Illustrator 18.1.1, SVG Export Plug-In . SVG Version: 6.00 Build 0)  -->
<svg version="1.1" id="Layer_1" xmlns="http://www.w3.org/2000/svg" xmlns:xlink="http://www.w3.org/1999/xlink" x="0px" y="0px"
	 viewBox="91 -40 787 651" enable-background="new 91 -40 787 651" xml:space="preserve">
<rect x="91" y="-40" fill="#00703c" width="787" height="651"/>
<g>
	<path fill="#FFFFFF" d="M703.6,331.9h62.5V531c0,4.3-0.7,8.4-6,11.8c-5.7,3.7-16.6,2.4-16.6,9.4c0,6.9,8.8,6.5,8.8,6.5h66.8
		c0,0,6.8-0.3,6.8-6.5c0-8.2-7.1-3.8-16.2-9.4c-5.6-3.5-7.4-6.5-7.4-13.4V78.6c0-4.3,0.7-8.2,5.9-11.8c5.7-3.7,16.6-2.4,16.6-9.4
		c0-6.9-8.8-6.5-8.8-6.5h-66.5c0,0-6.8,0.3-6.8,6.5c0,8.2,7.1,3.8,16.2,9.4c5.6,3.5,7.4,6.5,7.4,13.4V307h-62.7V140.2
		c9,0.7,11.2,3.1,16.6,8.7c8.1,8.4,7.4,23.2,7.5,23.2c0,2.1,1.5,4.6,3.8,4.6c3.2,0,4.7-2.2,4.7-4.4v-53.7h-32.7V29.1
		c0-4.3,0.7-8.4,6-11.8c5.7-3.7,16.6-2.4,16.6-9.4c0-6.9-8.8-6.5-8.8-6.5h-66.5c0,0-6.8,0.3-6.8,6.5c0,8.2,7.1,3.7,16.2,9.4
		c5.6,3.5,7.4,6.5,7.4,13.4v87.8H605h-69.1v53.5c0,2.4,1.5,4.4,4.7,4.4c2.4,0,3.8-2.6,3.8-4.6c0.1,0-0.6-14.7,7.5-23.2
		c7.1-7.4,7.9-8.8,26.6-8.8c14.1,0,18.4,0.7,21.8,4.6c3.2,3.8,3.5,13.5,3.5,13.5v365.7c0,8.1-0.7,20.7-10.3,20.7
		c-10.3,0-12.5-10.4-12.5-20.7c0.3,0.3,0-297.3,0-297.3c0-4.3,0.7-8.2,6-11.8c5.7-3.7,15.2-2.4,15.2-9.4c0-7.1-8.8-6.5-8.8-6.5H530
		c0,0-6.8,0.3-6.8,6.5c0,8.2,5.6,3.8,14.6,9.4c5.6,3.5,7.4,6.8,7.4,13.7v295.4c0,8.1-2.4,20.7-13.4,20.7c-10.3,0-14-10.4-14-20.7
		c0.3,0.3,0-430.8,0-430.8V80.2c0-4.3,0.7-8.4,5.9-11.9c5.7-3.7,16.6-2.4,16.6-9.4c0-6.9-8.8-6.5-8.8-6.5h-50.9l-36.8,305.2
		L402.3,52.5h-60c0,0-7.2-0.3-11.9,14c-4.7,14.3-8.2,21.3-8.2,21.3S292,47.4,259.6,47.4c-32.5,0-57.1,29.3-57.1,68.8
		c0,21.5,13.4,49.4,13.4,49.4l77.2,177.3c0,0,42.1,106.8,42.1,146.8c0,40.3-17.8,50.2-30,50.2c-52.2,0-70.5-27.9-74-72.2
		c-0.6-6.9-0.9-8.2-0.9-8.2s-1.3-63.5-5-63.5c-9-0.1-5,65.3-5,65.3v85.3c0,0,1.6,7.4,5.7,7.4c6.8,0,5.1-16.2,20-16.2
		c17.4,0,26.6,19.7,60.3,19.7c19.4,0,56-14.6,56-82.4c0-58.8-29-119.4-29-119.4L242.7,145c0,0-12.2-20.3-12.2-39.4s9-39.4,30-39.4
		c28.4,0,44.7,30.7,57.1,57.7c14.1,31.3,17.5,77.4,17.5,77.4s0,8.1,3.8,8.1c3.8,0,3.5-8.7,3.5-8.7s-2.6-37.7-2.6-69.9
		c0-51.5,4.6-65.3,4.6-65.3h19.4c0,0,4.6-0.3,9.9,5.3c5.3,5.6,4.1,18.5,4.1,18.5v441.3c0,4.3-0.7,8.4-6,11.8
		c-5.7,3.7-16.6,2.4-16.6,9.4c0,7.1,8.8,6.5,8.8,6.5h45.3c0,0,6.8-0.3,6.8-6.5c0-8.2-7.1-3.8-16.2-9.4c-5.6-3.5-7.4-6.5-7.4-13.4
		V277.1c0,0,0-3.2,2.1-1.2S432,545,432,545c0.3,3.2,2.6,5.6,4.7,5.6c2.8,0,3.1-2.2,3.8-5.4c0.1,0,35.7-261.1,35.7-261.1
		c1.6-13.1,5.4-9,5.4-0.3v247.4c0,4.3-0.7,8.4-6,11.8c-5.7,3.7-16.6,2.4-16.6,9.4c0,7.1,9,6.5,9,6.5h252.3c0,0,6.8-0.3,6.8-6.5
		c0-8.2-7.1-3.8-16.2-9.4c-5.6-3.5-7.4-6.5-7.4-13.4V331.9z M667.4,139.9v383.9c0,8.1-2.9,20.7-11.8,20.7c-10.3,0-14-10.4-14-20.7
		c0.3,0.3,0.1-366.4,0.1-366.4s0-8.8,3.2-12.8c3.1-3.8,7.4-4.6,20.7-4.6L667.4,139.9z"/>
	<path fill="#FFFFFF" d="M165.5,464.1v23.8c0,7.2,2.4,9.7,7.9,9.9v2.4h-36.2v-2.4c6.3,0,8.7-1.8,8.7-9.9v-50.5
		c0-8.1-2.4-9.9-8.7-9.9v-2.4h36.2v2.4c-5.4,0.1-7.9,2.6-7.9,9.9v21.3H186v-21.3c0-7.2-2.4-9.7-7.9-9.9v-2.4h36.2v2.4
		c-6.3,0-8.7,1.8-8.7,9.9v50.5c0,8.1,2.4,9.9,8.7,9.9v2.4H178v-2.4c5.4-0.1,7.9-2.6,7.9-9.9v-23.8H165.5z"/>
	<path fill="#FFFFFF" d="M253.3,437.8c0-8.1-2.4-9.9-8.7-9.9v-2.4h34.1c20.3,0,34,13.2,34,37.5c0,24.1-13.7,37.2-34,37.2h-34.3v-2.4
		c6.3,0,8.7-1.8,8.7-9.9C253.3,488.2,253.3,437.8,253.3,437.8z M272.7,487.6c0,6,1.6,7.9,5,7.9c9,0,15-12.7,15-34.6
		c0-16.9-4.7-30.9-19.9-30.9C272.7,430.1,272.7,487.6,272.7,487.6z"/>
</g>
</svg>
