<?xml version="1.0" encoding="utf-8"?>
<!-- Generator: Adobe Illustrator 18.1.1, SVG Export Plug-In . SVG Version: 6.00 Build 0)  -->
<svg version="1.1" id="Layer_1" xmlns="http://www.w3.org/2000/svg" xmlns:xlink="http://www.w3.org/1999/xlink" x="0px" y="0px"
	 viewBox="0 0 470 380.7" enable-background="new 0 0 470 380.7" xml:space="preserve">
<g>
	<path fill="#FFFFFF" d="M387,225.6h42.5V361c0,2.9-0.5,5.7-4.1,8c-3.9,2.5-11.3,1.6-11.3,6.4c0,4.7,6,4.4,6,4.4h45.4
		c0,0,4.6-0.2,4.6-4.4c0-5.6-4.8-2.6-11-6.4c-3.8-2.4-5-4.4-5-9.1V53.4c0-2.9,0.5-5.6,4-8c3.9-2.5,11.3-1.6,11.3-6.4
		c0-4.7-6-4.4-6-4.4h-45.2c0,0-4.6,0.2-4.6,4.4c0,5.6,4.8,2.6,11,6.4c3.8,2.4,5,4.4,5,9.1v154.2H387V95.3c6.1,0.5,7.6,2.1,11.3,5.9
		c5.5,5.7,5,15.8,5.1,15.8c0,1.4,1,3.1,2.6,3.1c2.2,0,3.2-1.5,3.2-3V80.6H387V19.8c0-2.9,0.5-5.7,4.1-8c3.9-2.5,11.3-1.6,11.3-6.4
		c0-4.7-6-4.4-6-4.4h-45.2c0,0-4.6,0.2-4.6,4.4c0,5.6,4.8,2.5,11,6.4c3.8,2.4,5,4.4,5,9.1v59.7H320H273V117c0,1.6,1,3,3.2,3
		c1.6,0,2.6-1.8,2.6-3.1c0.1,0-0.4-10,5.1-15.8c4.8-5,5.4-6,18.1-6c9.6,0,12.5,0.5,14.8,3.1c2.2,2.6,2.4,9.2,2.4,9.2v248.6
		c0,5.5-0.5,14.1-7,14.1c-7,0-8.5-7.1-8.5-14.1c0.2,0.2,0-202.1,0-202.1c0-2.9,0.5-5.6,4.1-8c3.9-2.5,10.3-1.6,10.3-6.4
		s-6-4.4-6-4.4H269c0,0-4.6,0.2-4.6,4.4c0,5.6,3.8,2.6,9.9,6.4c3.8,2.4,5,4.6,5,9.3V356c0,5.5-1.6,14.1-9.1,14.1
		c-7,0-9.5-7.1-9.5-14.1c0.2,0.2,0-292.9,0-292.9v-8.6c0-2.9,0.5-5.7,4-8.1c3.9-2.5,11.3-1.6,11.3-6.4c0-4.7-6-4.4-6-4.4h-34.6
		l-25,207.5L182.2,35.7h-40.8c0,0-4.9-0.2-8.1,9.5c-3.2,9.7-5.6,14.5-5.6,14.5s-20.5-27.5-42.5-27.5c-22.1,0-38.8,19.9-38.8,46.8
		c0,14.6,9.1,33.6,9.1,33.6L108,233.1c0,0,28.6,72.6,28.6,99.8c0,27.4-12.1,34.1-20.4,34.1c-35.5,0-47.9-19-50.3-49.1
		c-0.4-4.7-0.6-5.6-0.6-5.6s-0.9-43.2-3.4-43.2c-6.1-0.1-3.4,44.4-3.4,44.4v58c0,0,1.1,5,3.9,5c4.6,0,3.5-11,13.6-11
		c11.8,0,18.1,13.4,41,13.4c13.2,0,38.1-9.9,38.1-56c0-40-19.7-81.2-19.7-81.2L73.7,98.6c0,0-8.3-13.8-8.3-26.8S71.5,45,85.8,45
		c19.3,0,30.4,20.9,38.8,39.2c9.6,21.3,11.9,52.6,11.9,52.6s0,5.5,2.6,5.5c2.6,0,2.4-5.9,2.4-5.9s-1.8-25.6-1.8-47.5
		c0-35,3.1-44.4,3.1-44.4h13.2c0,0,3.1-0.2,6.7,3.6c3.6,3.8,2.8,12.6,2.8,12.6v300c0,2.9-0.5,5.7-4.1,8c-3.9,2.5-11.3,1.6-11.3,6.4
		s6,4.4,6,4.4h30.8c0,0,4.6-0.2,4.6-4.4c0-5.6-4.8-2.6-11-6.4c-3.8-2.4-5-4.4-5-9.1V188.4c0,0,0-2.2,1.4-0.8
		c1.4,1.4,25.5,182.9,25.5,182.9c0.2,2.2,1.8,3.8,3.2,3.8c1.9,0,2.1-1.5,2.6-3.7c0.1,0,24.3-177.5,24.3-177.5
		c1.1-8.9,3.7-6.1,3.7-0.2v168.2c0,2.9-0.5,5.7-4.1,8c-3.9,2.5-11.3,1.6-11.3,6.4s6.1,4.4,6.1,4.4h171.5c0,0,4.6-0.2,4.6-4.4
		c0-5.6-4.8-2.6-11-6.4c-3.8-2.4-5-4.4-5-9.1L387,225.6z M362.4,95.1v261c0,5.5-2,14.1-8,14.1c-7,0-9.5-7.1-9.5-14.1
		c0.2,0.2,0.1-249.1,0.1-249.1s0-6,2.2-8.7c2.1-2.6,5-3.1,14.1-3.1L362.4,95.1z"/>
	<path fill="#FFFFFF" d="M21.2,315.5v16.2c0,4.9,1.6,6.6,5.4,6.7v1.6H2v-1.6c4.3,0,5.9-1.2,5.9-6.7v-34.3c0-5.5-1.6-6.7-5.9-6.7
		v-1.6h24.6v1.6c-3.7,0.1-5.4,1.8-5.4,6.7v14.5h13.9v-14.5c0-4.9-1.6-6.6-5.4-6.7v-1.6h24.6v1.6c-4.3,0-5.9,1.2-5.9,6.7v34.3
		c0,5.5,1.6,6.7,5.9,6.7v1.6H29.7v-1.6c3.7-0.1,5.4-1.8,5.4-6.7v-16.2H21.2z"/>
	<path fill="#FFFFFF" d="M80.9,297.6c0-5.5-1.6-6.7-5.9-6.7v-1.6h23.2c13.8,0,23.1,9,23.1,25.5c0,16.4-9.3,25.3-23.1,25.3H74.9v-1.6
		c4.3,0,5.9-1.2,5.9-6.7C80.9,331.9,80.9,297.6,80.9,297.6z M94.1,331.5c0,4.1,1.1,5.4,3.4,5.4c6.1,0,10.2-8.6,10.2-23.5
		c0-11.5-3.2-21-13.5-21C94.1,292.4,94.1,331.5,94.1,331.5z"/>
</g>
</svg>
